<svg width="580" height="400" xmlns="http://www.w3.org/2000/svg">
 <!-- Created with SVG Editor - http://github.com/mzalive/SVG Editor/ -->
 <g>
  <title>background</title>
  <rect fill="none" id="canvas_background" height="402" width="582" y="-1" x="-1"/>
  <g display="none" overflow="visible" y="0" x="0" height="100%" width="100%" id="canvasGrid">
   <rect fill="url(#gridpattern)" stroke-width="0" y="0" x="0" height="100%" width="100%"/>
  </g>
 </g>
 <g>
  <title>Layer 1</title>
  <path id="svg_3" d="m79.706013,102.619537" opacity="0.5" stroke-width="1.5" stroke="#D6D6D6" fill="#fff"/>
  <path id="svg_5" d="m8.272657,219.679052" opacity="0.5" stroke-width="1.5" stroke="#D6D6D6" fill="#fff"/>
  <path id="svg_6" d="m18.835908,219.10355c0,0 83.53426,-143.37371 83.29375,-143.77532c0.24051,0.40161 33.9755,0.40161 33.73499,0c0.24051,0.40161 -79.27768,140.96407 -79.5182,140.56247c0.24052,0.4016 60.07997,0.80321 59.83945,0.40161c0.24052,0.4016 0.24052,-38.95589 0,-39.35749c0.24052,0.4016 29.95944,-1.60643 29.71892,-2.00804c0.24052,0.40161 0.24052,42.16874 0,41.76713c0.24052,0.40161 35.98355,0 35.74303,-0.4016c0.24052,0.4016 -0.9643,27.30927 -1.20482,26.90767c0.24052,0.4016 -33.49447,0.80321 -33.73499,0.40161c0.24052,0.4016 -0.16109,41.36552 -0.40161,40.96391c0.24052,0.40161 23.53373,0.80322 23.29321,0.40161c0.24052,0.40161 -0.16109,26.90767 -0.40161,26.50607c0.24052,0.4016 -76.06482,0 -76.30534,-0.40161c0.24052,0.40161 1.04373,-25.30125 0.80322,-25.70285c0.24051,0.4016 22.3289,0.4016 22.08838,0c0.24052,0.4016 1.04374,-42.97196 0.80322,-43.37356c0.24052,0.4016 -97.7516,2.00803 -97.99212,1.60643c0.24052,0.4016 0.24052,-24.49804 0.24052,-24.49804z" stroke-width="5" stroke="#D6D6D6" fill="none"/>
  <path stroke="#D6D6D6" id="svg_9" d="m195.474569,194.806527l0,0c0,-69.645648 42.344223,-126.104612 94.578457,-126.104612l0,0c25.083756,0 49.140167,13.285976 66.877055,36.935178c17.736907,23.64921 27.701402,55.724401 27.701402,89.169434l0,0c0,69.645639 -42.344223,126.104612 -94.578457,126.104612l0,0c-52.234228,0 -94.578457,-56.458973 -94.578457,-126.104612zm47.289229,0l0,0c0,34.822815 21.172124,63.052306 47.289229,63.052306c26.117124,0 47.289229,-28.229491 47.289229,-63.052306c0,-34.822815 -21.172118,-63.052306 -47.289229,-63.052306l0,0c-26.117105,0 -47.289229,28.229499 -47.289229,63.052306z" stroke-opacity="null" stroke-width="5" fill="none"/>
  <path id="svg_10" d="m396.355106,217.557154c0,0 83.53426,-143.37371 83.29375,-143.77532c0.24051,0.40161 33.9755,0.40161 33.73499,0c0.24051,0.40161 -79.27768,140.96407 -79.5182,140.56247c0.24052,0.4016 60.07997,0.80321 59.83945,0.40161c0.24052,0.4016 0.24052,-38.95589 0,-39.35749c0.24052,0.4016 29.95944,-1.60643 29.71892,-2.00804c0.24052,0.40161 0.24052,42.16874 0,41.76713c0.24052,0.40161 35.98355,0 35.74303,-0.4016c0.24052,0.4016 -0.9643,27.30927 -1.20482,26.90767c0.24052,0.4016 -33.49447,0.80321 -33.73499,0.40161c0.24052,0.4016 -0.16109,41.36552 -0.40161,40.96391c0.24052,0.40161 23.53373,0.80322 23.29321,0.40161c0.24052,0.40161 -0.16109,26.90767 -0.40161,26.50607c0.24052,0.4016 -76.06482,0 -76.30534,-0.40161c0.24052,0.40161 1.04373,-25.30125 0.80322,-25.70285c0.24051,0.4016 22.3289,0.4016 22.08838,0c0.24052,0.4016 1.04374,-42.97196 0.80322,-43.37356c0.24052,0.4016 -97.7516,2.00803 -97.99212,1.60643c0.24052,0.4016 0.24052,-24.49804 0.24052,-24.49804z" stroke-width="5.5" stroke="#D6D6D6" fill="none"/>
  <rect stroke="#D6D6D6" id="svg_18" height="0.643822" width="0.833181" y="216.304063" x="179.747417" fill-opacity="null" stroke-opacity="null" stroke-width="4" fill="#fff"/>
  <rect stroke="#D6D6D6" id="svg_19" height="0.643822" width="0.833181" y="216.304063" x="144.529384" fill-opacity="null" stroke-opacity="null" stroke-width="4" fill="#fff"/>
  <rect stroke="#D6D6D6" id="svg_20" height="0.643822" width="0.833181" y="174.754487" x="144.529384" fill-opacity="null" stroke-opacity="null" stroke-width="4" fill="#fff"/>
  <rect stroke="#D6D6D6" id="svg_22" height="0.643822" width="0.833181" y="176.340297" x="114.630151" fill-opacity="null" stroke-opacity="null" stroke-width="4" fill="#fff"/>
  <rect stroke="#D6D6D6" id="svg_23" height="0.643822" width="0.833181" y="215.572918" x="114.630151" fill-opacity="null" stroke-opacity="null" stroke-width="4" fill="#fff"/>
  <rect stroke="#D6D6D6" id="svg_24" height="0.643822" width="0.833181" y="215.572918" x="55.394439" fill-opacity="null" stroke-opacity="null" stroke-width="4" fill="#fff"/>
  <rect stroke="#D6D6D6" id="svg_25" height="0.643822" width="0.833181" y="242.495986" x="17.702146" fill-opacity="null" stroke-opacity="null" stroke-width="4" fill="#fff"/>
  <rect stroke="#D6D6D6" id="svg_26" height="0.643822" width="0.833181" y="241.919063" x="115.011519" fill-opacity="null" stroke-opacity="null" stroke-width="4" fill="#fff"/>
  <rect stroke="#D6D6D6" id="svg_27" height="0.643822" width="0.833181" y="284.750834" x="114.434597" fill-opacity="null" stroke-opacity="null" stroke-width="4" fill="#fff"/>
  <rect stroke="#D6D6D6" id="svg_28" height="0.643822" width="0.833181" y="309.293522" x="92.653669" fill-opacity="null" stroke-opacity="null" stroke-width="4" fill="#fff"/>
  <rect stroke="#D6D6D6" id="svg_33" height="0.643822" width="0.833181" y="285.380588" x="93.08845" fill-opacity="null" stroke-opacity="null" stroke-width="4" fill="#fff"/>
 </g>
</svg>